<svg xmlns="http://www.w3.org/2000/svg" xmlns:xlink="http://www.w3.org/1999/xlink" viewBox="0 0 269 250" preserveAspectRatio="xMidYMid" width="269" height="250" style="display:block;shape-rendering:auto;background-position-x:0%;background-position-y:0%;background-size:auto;background-origin:padding-box;background-clip:border-box;fill:rgb(0, 0, 0);stroke:none;transform:none;opacity:1;background:scroll rgba(0, 0, 0, 0) none  repeat;width:269px;height:250px;;animation:none"><style type="text/css">.ld-text text {
    text-anchor: middle;
    dominant-baseline: middle;
    font-size: 64px;
    opacity: 0;
    user-select: none;
    pointer-events: none;
  }</style>


<g class="ld-text" style="transform-origin:134.5px 125px;transform:matrix(1, 0, 0, 1, 0, 0);fill:rgb(0, 0, 0);stroke:none;opacity:1;;animation:none"><g transform="matrix(1,0,0,1,134.5,125)" style="fill:rgb(0, 0, 0);stroke:none;transform:none;opacity:1;;animation:none"><g transform="matrix(0.800000011920929,0,0,0.800000011920929,0,0)" style="fill:rgb(0, 0, 0);stroke:none;transform:none;opacity:1;;animation:none"><g class="path" style="opacity:1;animation-name:animate-ti6lj41xnnn;animation-duration:1s;animation-timing-function:linear;animation-delay:-0.565714s;animation-iteration-count:infinite;animation-direction:normal;animation-fill-mode:forwards;animation-play-state:paused;transform-box:view-box;transform-origin:-141.64px 0.05px;fill:rgb(0, 0, 0);stroke:none;transform:matrix(1, 0, 0, 1, 0, 0);;animation:none"><path d="M1.04 47.95L7.28 39.31Q14.08 46.11 20.88 46.11L20.88 46.11Q24.40 46.11 26.52 44.47Q28.64 42.83 28.64 40.23Q28.64 37.63 26.08 35.83Q23.52 34.03 19.88 32.67Q16.24 31.31 12.64 29.59Q9.04 27.87 6.48 24.67Q3.92 21.47 3.92 16.91L3.92 16.91Q3.92 9.71 9.92 4.47Q15.92-0.77 24.16-0.77L24.16-0.77Q27.92-0.77 31.44 0.03Q34.96 0.83 38.24 2.35L38.24 2.35L32.80 14.03Q30.56 12.27 26.68 10.79Q22.80 9.31 19.88 9.31Q16.96 9.31 15.16 10.71Q13.36 12.11 13.36 14.43Q13.36 16.75 15.92 18.55Q18.48 20.35 22.12 21.71Q25.76 23.07 29.40 24.71Q33.04 26.35 35.60 29.55Q38.16 32.75 38.16 37.31L38.16 37.31Q38.16 44.83 32.16 50.47Q26.16 56.11 18.16 56.11L18.16 56.11Q12.16 56.11 7.52 53.23L7.52 53.23Q3.44 50.75 1.76 48.83L1.76 48.83L1.04 47.95" transform="matrix(1,0,0,1,-161.27999877929688,-27.617000579833984)" style="fill:rgb(255, 255, 255);stroke:none;transform:none;opacity:1;;animation:none"></path></g>
<g class="path" style="opacity:1;animation-name:animate-ti6lj41xnnn;animation-duration:1s;animation-timing-function:linear;animation-delay:-0.471429s;animation-iteration-count:infinite;animation-direction:normal;animation-fill-mode:forwards;animation-play-state:paused;transform-box:view-box;transform-origin:-95.32px -0.03px;fill:rgb(0, 0, 0);stroke:none;transform:matrix(1, 0, 0, 1, 0, 0);;animation:none"><path d="M90.48 53.87L78.96 55.63L75.04 40.03L55.92 40.03L51.68 55.23L41.44 54.43L48.48 34.99L59.20 0.59L73.52-0.45L83.84 33.79L90.48 53.87 zM72.64 31.55L66.32 9.95L65.28 9.95L58.40 31.55L72.64 31.55" transform="matrix(1,0,0,1,-161.27999877929688,-27.617000579833984)" style="fill:rgb(255, 255, 255);stroke:none;transform:none;opacity:1;;animation:none"></path></g>
<g class="path" style="opacity:1;animation-name:animate-ti6lj41xnnn;animation-duration:1s;animation-timing-function:linear;animation-delay:-0.377143s;animation-iteration-count:infinite;animation-direction:normal;animation-fill-mode:forwards;animation-play-state:paused;transform-box:view-box;transform-origin:-39.52px -0.27px;fill:rgb(0, 0, 0);stroke:none;transform:matrix(1, 0, 0, 1, 0, 0);;animation:none"><path d="M111.20-0.53L121.28 30.27L122.08 30.27L133.76-0.13L144.80 0.19L145.12 34.59L146.64 55.23L135.84 55.23L136.24 34.43L135.36 13.39L125.76 39.87L115.92 40.35L106.96 13.39L106.24 34.43L106.80 55.23L96.88 55.23L98 35.79L98.48 1.47L111.20-0.53" transform="matrix(1,0,0,1,-161.27999877929688,-27.617000579833984)" style="fill:rgb(255, 255, 255);stroke:none;transform:none;opacity:1;;animation:none"></path></g>
<g class="path" style="opacity:1;animation-name:animate-ti6lj41xnnn;animation-duration:1s;animation-timing-function:linear;animation-delay:-0.282857s;animation-iteration-count:infinite;animation-direction:normal;animation-fill-mode:forwards;animation-play-state:paused;transform-box:view-box;transform-origin:15.88px -0.03px;fill:rgb(0, 0, 0);stroke:none;transform:matrix(1, 0, 0, 1, 0, 0);;animation:none"><path d="M201.68 53.87L190.16 55.63L186.24 40.03L167.12 40.03L162.88 55.23L152.64 54.43L159.68 34.99L170.40 0.59L184.72-0.45L195.04 33.79L201.68 53.87 zM183.84 31.55L177.52 9.95L176.48 9.95L169.60 31.55L183.84 31.55" transform="matrix(1,0,0,1,-161.27999877929688,-27.617000579833984)" style="fill:rgb(255, 255, 255);stroke:none;transform:none;opacity:1;;animation:none"></path></g>
<g class="path" style="opacity:1;animation-name:animate-ti6lj41xnnn;animation-duration:1s;animation-timing-function:linear;animation-delay:-0.188571s;animation-iteration-count:infinite;animation-direction:normal;animation-fill-mode:forwards;animation-play-state:paused;transform-box:view-box;transform-origin:53.68px -0.19px;fill:rgb(0, 0, 0);stroke:none;transform:matrix(1, 0, 0, 1, 0, 0);;animation:none"><path d="M209.28 1.63L220.64-0.37L219.52 34.43L220.48 55.23L209.28 55.23L210.24 35.79L209.28 1.63" transform="matrix(1,0,0,1,-161.27999877929688,-27.617000579833984)" style="fill:rgb(255, 255, 255);stroke:none;transform:none;opacity:1;;animation:none"></path></g>
<g class="path" style="opacity:1;animation-name:animate-ti6lj41xnnn;animation-duration:1s;animation-timing-function:linear;animation-delay:-0.0942857s;animation-iteration-count:infinite;animation-direction:normal;animation-fill-mode:forwards;animation-play-state:paused;transform-box:view-box;transform-origin:91.24px 0.45px;fill:rgb(0, 0, 0);stroke:none;transform:matrix(1, 0, 0, 1, 0, 0);;animation:none"><path d="M247.76 33.95L247.76 33.95L243.20 33.95L243.20 34.43L244.16 55.23L233.44 55.23L234.40 35.79L233.44 0.03L250.80 0.03Q258.48 0.03 263.04 4.19Q267.60 8.35 267.60 15.23L267.60 15.23Q267.60 20.43 264.92 24.71Q262.24 28.99 257.68 31.47L257.68 31.47L271.60 51.15L261.92 56.11L249.44 33.87Q248.88 33.95 247.76 33.95 zM247.92 8.11L247.92 8.11L244 8.11L243.44 26.19L248.88 26.19Q252.88 26.19 255.08 23.55Q257.28 20.91 257.28 16.03L257.28 16.03Q257.28 8.11 247.92 8.11" transform="matrix(1,0,0,1,-161.27999877929688,-27.617000579833984)" style="fill:rgb(255, 255, 255);stroke:none;transform:none;opacity:1;;animation:none"></path></g>
<g class="path" style="opacity:1;animation-name:animate-ti6lj41xnnn;animation-duration:1s;animation-timing-function:linear;animation-delay:0s;animation-iteration-count:infinite;animation-direction:normal;animation-fill-mode:forwards;animation-play-state:paused;transform-box:view-box;transform-origin:137.8px -0.03px;fill:rgb(0, 0, 0);stroke:none;transform:matrix(1, 0, 0, 1, 0, 0);;animation:none"><path d="M323.60 53.87L312.08 55.63L308.16 40.03L289.04 40.03L284.80 55.23L274.56 54.43L281.60 34.99L292.32 0.59L306.64-0.45L316.96 33.79L323.60 53.87 zM305.76 31.55L299.44 9.95L298.40 9.95L291.52 31.55L305.76 31.55" transform="matrix(1,0,0,1,-161.27999877929688,-27.617000579833984)" style="fill:rgb(255, 255, 255);stroke:none;transform:none;opacity:1;;animation:none"></path></g></g>
<text dy="0.35em" fill="#ffffff" font-family="Acme" font-size="64" style="fill:rgb(255, 255, 255);stroke:none;transform:none;opacity:0;;animation:none">SAMAIRA</text></g></g>
<STYLE type="text/css">@keyframes animate-ti6lj41xnnn { 0.00% {animation-timing-function: cubic-bezier(0.33,0.00,0.67,0.00);transform: translate(0.00px,0.00px) rotate(0.00deg) scale(1.00, 1.00) skew(0deg, 0.00deg) ;opacity: 1.00;}50.00% {animation-timing-function: cubic-bezier(0.33,0.00,0.67,0.00);transform: translate(0.00px,0.00px) rotate(0.00deg) ;}100.00% {animation-timing-function: cubic-bezier(0.33,0.00,0.67,0.00);transform: translate(0.00px,0.00px) rotate(0.00deg) ;} }</STYLE><!-- [ldio] generated by https://loading.io --></svg>