<?xml version="1.0" encoding="UTF-8"?>
<svg version="1.1" xmlns="http://www.w3.org/2000/svg" width="500" height="76">
<path d="M0 0 C2.09744487 1.15419167 3.3906195 2.44173611 5.05859375 4.1328125 C6.04859375 4.4628125 7.03859375 4.7928125 8.05859375 5.1328125 C10.36188226 8.88631969 11.54912891 11.71799603 11.05859375 16.1328125 C10.72859375 16.7928125 10.39859375 17.4528125 10.05859375 18.1328125 C10.45798142 20.23102465 10.45798142 20.23102465 11.05859375 22.1328125 C8.39192708 22.1328125 5.72526042 22.1328125 3.05859375 22.1328125 C0.78796268 22.45164874 -1.48187714 22.77308001 -3.75 23.109375 C-5.94140625 23.1328125 -5.94140625 23.1328125 -8.94140625 21.1328125 C-8.94140625 19.8128125 -8.94140625 18.4928125 -8.94140625 17.1328125 C-8.19375 17.08382812 -7.44609375 17.03484375 -6.67578125 16.984375 C-5.6909375 16.90960938 -4.70609375 16.83484375 -3.69140625 16.7578125 C-2.22960938 16.65339844 -2.22960938 16.65339844 -0.73828125 16.546875 C1.95492564 16.14816001 3.72822654 15.49774187 6.05859375 14.1328125 C4.22526042 10.96614583 4.22526042 10.96614583 1.05859375 9.1328125 C0.56359375 8.6378125 0.56359375 8.6378125 0.05859375 8.1328125 C-0.60140625 7.8028125 -1.26140625 7.4728125 -1.94140625 7.1328125 C-1.94140625 6.4728125 -1.94140625 5.8128125 -1.94140625 5.1328125 C-3.69125979 4.65311127 -5.44129516 4.17407326 -7.19140625 3.6953125 C-8.1659375 3.42847656 -9.14046875 3.16164063 -10.14453125 2.88671875 C-11.0675 2.63792969 -11.99046875 2.38914062 -12.94140625 2.1328125 C-13.65296875 1.91625 -14.36453125 1.6996875 -15.09765625 1.4765625 C-18.00015619 0.93541844 -20.24909697 2.0926021 -22.94140625 3.1328125 C-22.68165118 8.82302687 -22.68165118 8.82302687 -20.00390625 13.6328125 C-18.09687351 15.32886973 -18.09687351 15.32886973 -15.94140625 15.1328125 C-15.87953125 15.7103125 -15.81765625 16.2878125 -15.75390625 16.8828125 C-14.62371865 20.01256278 -12.53122933 21.09795151 -9.94140625 23.1328125 C-8.90049965 24.77424213 -7.89636299 26.43993465 -6.94140625 28.1328125 C-6.42320313 28.5659375 -5.905 28.9990625 -5.37109375 29.4453125 C-3.35262807 31.8277638 -3.6079112 33.49351981 -3.69140625 36.5703125 C-3.706875 37.51777344 -3.72234375 38.46523438 -3.73828125 39.44140625 C-3.91658939 41.80398905 -4.27699441 43.86631083 -4.94140625 46.1328125 C-3.95140625 46.1328125 -2.96140625 46.1328125 -1.94140625 46.1328125 C-2.25078125 44.2146875 -2.25078125 44.2146875 -2.56640625 42.2578125 C-2.91796875 40.078125 -2.91796875 40.078125 -2.94140625 38.1328125 C-2.28140625 37.4728125 -1.62140625 36.8128125 -0.94140625 36.1328125 C-0.44640625 35.1428125 -0.44640625 35.1428125 0.05859375 34.1328125 C1.04859375 34.1328125 2.03859375 34.1328125 3.05859375 34.1328125 C3.38859375 33.1428125 3.71859375 32.1528125 4.05859375 31.1328125 C6.53359375 30.6378125 6.53359375 30.6378125 9.05859375 30.1328125 C10.71450531 33.1134533 11.45815359 35.78750306 12.05859375 39.1328125 C12.38859375 40.1228125 12.71859375 41.1128125 13.05859375 42.1328125 C16.35859375 42.1328125 19.65859375 42.1328125 23.05859375 42.1328125 C23.55359375 41.1428125 23.55359375 41.1428125 24.05859375 40.1328125 C26.07646234 39.01950569 28.15055341 38.0907738 30.24609375 37.1328125 C32.23060898 36.26136681 32.23060898 36.26136681 33.05859375 34.1328125 C34.04859375 34.1328125 35.03859375 34.1328125 36.05859375 34.1328125 C36.55359375 33.1428125 36.55359375 33.1428125 37.05859375 32.1328125 C37.55359375 34.1128125 37.55359375 34.1128125 38.05859375 36.1328125 C39.17234375 35.7821875 40.28609375 35.4315625 41.43359375 35.0703125 C47.80230707 33.47246805 54.29076086 33.90494272 60.05859375 37.1328125 C59.72859375 38.1228125 59.39859375 39.1128125 59.05859375 40.1328125 C61.97624375 42.0779125 63.6839666 42.58557567 67.05859375 43.1328125 C67.05859375 42.4728125 67.05859375 41.8128125 67.05859375 41.1328125 C69.03859375 40.8028125 71.01859375 40.4728125 73.05859375 40.1328125 C73.05859375 39.4728125 73.05859375 38.8128125 73.05859375 38.1328125 C73.71859375 38.1328125 74.37859375 38.1328125 75.05859375 38.1328125 C75.42984375 37.17375 75.42984375 37.17375 75.80859375 36.1953125 C77.05859375 34.1328125 77.05859375 34.1328125 79.18359375 33.3828125 C79.80234375 33.3003125 80.42109375 33.2178125 81.05859375 33.1328125 C81.05859375 32.4728125 81.05859375 31.8128125 81.05859375 31.1328125 C83.03859375 30.8028125 85.01859375 30.4728125 87.05859375 30.1328125 C87.36796875 31.2259375 87.67734375 32.3190625 87.99609375 33.4453125 C88.64197272 35.68689244 89.32090545 37.9197476 90.05859375 40.1328125 C90.05859375 40.7928125 90.05859375 41.4528125 90.05859375 42.1328125 C91.68440341 42.01882585 93.30926532 41.89125591 94.93359375 41.7578125 C95.83851563 41.68820313 96.7434375 41.61859375 97.67578125 41.546875 C100.23801278 41.33713118 100.23801278 41.33713118 102.05859375 39.1328125 C102.98671875 38.9471875 102.98671875 38.9471875 103.93359375 38.7578125 C106.90855749 37.88282316 108.21023694 36.59728825 110.05859375 34.1328125 C109.91834176 31.42575738 109.91834176 31.42575738 109.05859375 29.1328125 C109.71859375 29.1328125 110.37859375 29.1328125 111.05859375 29.1328125 C111.05859375 28.4728125 111.05859375 27.8128125 111.05859375 27.1328125 C112.37859375 27.1328125 113.69859375 27.1328125 115.05859375 27.1328125 C114.97480469 27.96425781 114.89101562 28.79570313 114.8046875 29.65234375 C114.70285156 30.73902344 114.60101563 31.82570312 114.49609375 32.9453125 C114.39167969 34.02425781 114.28726563 35.10320313 114.1796875 36.21484375 C113.88281766 39.19763704 113.88281766 39.19763704 115.05859375 42.1328125 C124.34451478 41.81052194 124.34451478 41.81052194 132.05859375 37.1328125 C132.05859375 36.4728125 132.05859375 35.8128125 132.05859375 35.1328125 C132.71859375 34.8028125 133.37859375 34.4728125 134.05859375 34.1328125 C134.18234375 33.3490625 134.30609375 32.5653125 134.43359375 31.7578125 C135.05859375 29.1328125 135.05859375 29.1328125 136.87109375 27.2578125 C139.05859375 26.1328125 139.05859375 26.1328125 141.30859375 26.4453125 C141.88609375 26.6721875 142.46359375 26.8990625 143.05859375 27.1328125 C143.05859375 27.7928125 143.05859375 28.4528125 143.05859375 29.1328125 C143.71859375 29.1328125 144.37859375 29.1328125 145.05859375 29.1328125 C145.05859375 30.1228125 145.05859375 31.1128125 145.05859375 32.1328125 C146.04859375 32.1328125 147.03859375 32.1328125 148.05859375 32.1328125 C148.05859375 35.4328125 148.05859375 38.7328125 148.05859375 42.1328125 C151.68859375 41.8028125 155.31859375 41.4728125 159.05859375 41.1328125 C159.05859375 40.4728125 159.05859375 39.8128125 159.05859375 39.1328125 C162.05859375 37.1328125 162.05859375 37.1328125 164.37109375 36.7578125 C167.83854138 35.95142933 170.14864014 34.13744721 173.05859375 32.1328125 C173.71859375 32.1328125 174.37859375 32.1328125 175.05859375 32.1328125 C175.38859375 31.4728125 175.71859375 30.8128125 176.05859375 30.1328125 C177.37859375 30.1328125 178.69859375 30.1328125 180.05859375 30.1328125 C180.25390625 32.11848958 180.44921875 34.10416667 180.64453125 36.08984375 C180.98524766 38.43269392 180.98524766 38.43269392 183.05859375 41.1328125 C187.57011162 42.48626786 190.27103799 42.30135207 194.37109375 40.1953125 C195.35529297 39.62490234 195.35529297 39.62490234 196.359375 39.04296875 C198.05859375 38.1328125 198.05859375 38.1328125 200.05859375 38.1328125 C200.05859375 37.4728125 200.05859375 36.8128125 200.05859375 36.1328125 C201.70859375 35.4728125 203.35859375 34.8128125 205.05859375 34.1328125 C205.05859375 35.7828125 205.05859375 37.4328125 205.05859375 39.1328125 C203.73859375 39.7928125 202.41859375 40.4528125 201.05859375 41.1328125 C201.05859375 41.7928125 201.05859375 42.4528125 201.05859375 43.1328125 C196.61634297 45.17624786 192.89971269 46.32595934 188.05859375 47.1328125 C187.72859375 47.7928125 187.39859375 48.4528125 187.05859375 49.1328125 C185.72004319 48.34999945 184.38785731 47.55629373 183.05859375 46.7578125 C181.94484375 46.09652344 181.94484375 46.09652344 180.80859375 45.421875 C180.23109375 44.99648438 179.65359375 44.57109375 179.05859375 44.1328125 C179.05859375 43.4728125 179.05859375 42.8128125 179.05859375 42.1328125 C176.87103351 42.94307133 176.87103351 42.94307133 176.30859375 45.1328125 C175.05859375 47.1328125 175.05859375 47.1328125 172.05859375 48.0078125 C170.57359375 48.0696875 170.57359375 48.0696875 169.05859375 48.1328125 C168.39859375 47.4728125 167.73859375 46.8128125 167.05859375 46.1328125 C164.97403686 45.88842177 164.97403686 45.88842177 162.59375 46.0078125 C161.27020508 46.03101562 161.27020508 46.03101562 159.91992188 46.0546875 C158.05793966 46.10666188 156.19596048 46.15874476 154.33398438 46.2109375 C153.45033203 46.22640625 152.56667969 46.241875 151.65625 46.2578125 C150.84679932 46.28101563 150.03734863 46.30421875 149.20336914 46.328125 C147.05859375 46.1328125 147.05859375 46.1328125 144.05859375 44.1328125 C143.87109375 41.5078125 143.87109375 41.5078125 144.05859375 39.1328125 C139.74585321 38.70153845 137.01658979 38.73864024 133.62109375 41.4453125 C130.71355608 43.87578749 130.71355608 43.87578749 131.05859375 47.1328125 C130.48109375 46.9265625 129.90359375 46.7203125 129.30859375 46.5078125 C127.05557666 45.89933755 127.05557666 45.89933755 125.23046875 47.09375 C122.67124796 48.31812542 120.88294564 48.40003416 118.05859375 48.3828125 C116.79015625 48.39054687 116.79015625 48.39054687 115.49609375 48.3984375 C113.05859375 48.1328125 113.05859375 48.1328125 111.296875 47.0859375 C107.08941088 45.29427739 102.34153963 46.43587859 97.87695312 46.85546875 C92.70913057 47.26129608 88.97058986 46.79320555 84.05859375 45.1328125 C83.39859375 45.1328125 82.73859375 45.1328125 82.05859375 45.1328125 C82.05859375 45.7928125 82.05859375 46.4528125 82.05859375 47.1328125 C78.59359375 47.6278125 78.59359375 47.6278125 75.05859375 48.1328125 C74.39859375 47.1428125 73.73859375 46.1528125 73.05859375 45.1328125 C72.56359375 45.4628125 72.06859375 45.7928125 71.55859375 46.1328125 C66.89202377 47.99944049 62.40436125 47.4264345 57.62109375 46.3828125 C55.05859375 45.1328125 55.05859375 45.1328125 54.18359375 43.0078125 C54.14234375 42.3890625 54.10109375 41.7703125 54.05859375 41.1328125 C50.43065377 42.99847738 50.43065377 42.99847738 48.05859375 46.1328125 C44.42859375 46.1328125 40.79859375 46.1328125 37.05859375 46.1328125 C38.70859375 44.4828125 40.35859375 42.8328125 42.05859375 41.1328125 C38.80316146 41.48160882 38.03986268 42.15414511 35.80859375 44.6953125 C35.23109375 45.4996875 34.65359375 46.3040625 34.05859375 47.1328125 C31.08859375 46.4728125 28.11859375 45.8128125 25.05859375 45.1328125 C24.56359375 46.1228125 24.56359375 46.1228125 24.05859375 47.1328125 C17.641707 47.23631067 11.43164973 46.87788794 5.05859375 46.1328125 C4.72859375 47.1228125 4.39859375 48.1128125 4.05859375 49.1328125 C-3.48979335 48.37797379 -3.48979335 48.37797379 -6.12890625 46.9453125 C-6.72703125 46.6771875 -7.32515625 46.4090625 -7.94140625 46.1328125 C-8.68390625 46.43960938 -9.42640625 46.74640625 -10.19140625 47.0625 C-16.30979447 49.44380451 -23.59919045 48.92418065 -29.69140625 46.6328125 C-30.76390625 46.1378125 -31.83640625 45.6428125 -32.94140625 45.1328125 C-33.42685772 40.27829775 -33.48204646 37.07457286 -31.00390625 32.7578125 C-27.71082946 29.33148983 -23.44414368 28.25113944 -18.94140625 27.1328125 C-18.61140625 28.1228125 -18.28140625 29.1128125 -17.94140625 30.1328125 C-17.28140625 30.4628125 -16.62140625 30.7928125 -15.94140625 31.1328125 C-17.26140625 31.7928125 -18.58140625 32.4528125 -19.94140625 33.1328125 C-19.92078125 33.9371875 -19.90015625 34.7415625 -19.87890625 35.5703125 C-19.94140625 38.1328125 -19.94140625 38.1328125 -20.94140625 39.1328125 C-23.27473958 39.1328125 -25.60807292 39.1328125 -27.94140625 39.1328125 C-28.43640625 39.6278125 -28.43640625 39.6278125 -28.94140625 40.1328125 C-28.94140625 40.7928125 -28.94140625 41.4528125 -28.94140625 42.1328125 C-19.21520293 43.50967378 -19.21520293 43.50967378 -9.94140625 41.1328125 C-8.21870764 38.21171486 -7.94140625 36.52145461 -7.94140625 33.1328125 C-8.60140625 33.1328125 -9.26140625 33.1328125 -9.94140625 33.1328125 C-11.28472279 31.13950408 -12.61734637 29.13896384 -13.94140625 27.1328125 C-14.93140625 26.4728125 -15.92140625 25.8128125 -16.94140625 25.1328125 C-16.94140625 24.1428125 -16.94140625 23.1528125 -16.94140625 22.1328125 C-17.86953125 21.8853125 -18.79765625 21.6378125 -19.75390625 21.3828125 C-23.1690154 20.04355401 -24.18582014 19.27438765 -25.94140625 16.1328125 C-26.29309693 14.80420325 -26.62910901 13.47122922 -26.94140625 12.1328125 C-27.60140625 11.4728125 -28.26140625 10.8128125 -28.94140625 10.1328125 C-29.60329965 5.08587535 -29.60329965 5.08587535 -28.94140625 2.1328125 C-21.73416094 -7.18886125 -9.37139646 -3.90859557 0 0 Z M47.05859375 36.1328125 C47.38859375 37.1228125 47.71859375 38.1128125 48.05859375 39.1328125 C48.05859375 38.4728125 48.05859375 37.8128125 48.05859375 37.1328125 C49.04859375 36.8028125 50.03859375 36.4728125 51.05859375 36.1328125 C49.73859375 36.1328125 48.41859375 36.1328125 47.05859375 36.1328125 Z M3.05859375 38.1328125 C2.72859375 39.4528125 2.39859375 40.7728125 2.05859375 42.1328125 C3.04859375 40.8128125 4.03859375 39.4928125 5.05859375 38.1328125 C4.39859375 38.1328125 3.73859375 38.1328125 3.05859375 38.1328125 Z M173.05859375 38.1328125 C172.39859375 39.4528125 171.73859375 40.7728125 171.05859375 42.1328125 C171.71859375 42.1328125 172.37859375 42.1328125 173.05859375 42.1328125 C173.38859375 40.8128125 173.71859375 39.4928125 174.05859375 38.1328125 C173.72859375 38.1328125 173.39859375 38.1328125 173.05859375 38.1328125 Z M79.05859375 39.1328125 C78.72859375 40.4528125 78.39859375 41.7728125 78.05859375 43.1328125 C79.04859375 42.1428125 80.03859375 41.1528125 81.05859375 40.1328125 C80.39859375 39.8028125 79.73859375 39.4728125 79.05859375 39.1328125 Z M109.05859375 41.1328125 C109.05859375 44.1328125 109.05859375 44.1328125 109.05859375 44.1328125 Z M8.05859375 42.1328125 C7.72859375 42.7928125 7.39859375 43.4528125 7.05859375 44.1328125 C8.04859375 43.8028125 9.03859375 43.4728125 10.05859375 43.1328125 C9.39859375 42.8028125 8.73859375 42.4728125 8.05859375 42.1328125 Z M30.05859375 42.1328125 C29.72859375 43.1228125 29.39859375 44.1128125 29.05859375 45.1328125 C29.71859375 45.1328125 30.37859375 45.1328125 31.05859375 45.1328125 C30.72859375 44.1428125 30.39859375 43.1528125 30.05859375 42.1328125 Z M166.05859375 42.1328125 C165.72859375 42.7928125 165.39859375 43.4528125 165.05859375 44.1328125 C165.71859375 44.1328125 166.37859375 44.1328125 167.05859375 44.1328125 C166.72859375 43.4728125 166.39859375 42.8128125 166.05859375 42.1328125 Z " fill="#800000" transform="translate(36.94140625,17.8671875)"/>
<path d="M0 0 C2.64 0 5.28 0 8 0 C7.84643191 8.25079473 6.69373926 14.14125185 2 21 C1.34 21 0.68 21 0 21 C0 23.64 0 26.28 0 29 C0.928125 29.103125 1.85625 29.20625 2.8125 29.3125 C6 30 6 30 7.5 31.5625 C9.0202113 33.30569594 9.0202113 33.30569594 12 33.375 C15.4148582 32.94814272 15.74243527 32.35571972 18 30 C19.66611905 29.957279 21.33382885 29.95936168 23 30 C25.25132517 29.08431094 25.25132517 29.08431094 27 28 C26.690625 26.329375 26.690625 26.329375 26.375 24.625 C26.25125 23.42875 26.1275 22.2325 26 21 C26.66 20.34 27.32 19.68 28 19 C29.32 19 30.64 19 32 19 C31.95875 20.216875 31.9175 21.43375 31.875 22.6875 C31.86239079 26.26220969 32.54043883 28.71598737 34 32 C34 33.32 34 34.64 34 36 C35.8141927 35.71905418 37.62635001 35.42493567 39.4375 35.125 C40.44683594 34.96257813 41.45617187 34.80015625 42.49609375 34.6328125 C43.32238281 34.42398438 44.14867187 34.21515625 45 34 C45.495 33.01 45.495 33.01 46 32 C49.57692308 29 49.57692308 29 52 29 C52.33 28.01 52.66 27.02 53 26 C56.4859153 24.52518968 60.27964721 24.85960933 64 25 C65 26 65 26 65.0625 29.0625 C65.041875 30.031875 65.02125 31.00125 65 32 C73.00179583 31.58709594 79.22518805 31.04980299 85 25 C88 24 88 24 89.9375 24.875 C90.618125 25.24625 91.29875 25.6175 92 26 C94.22497932 26.64596174 96.25045821 27.02443495 98.5625 27.25 C101 28 101 28 102.8125 30.5625 C103.4003125 31.7690625 103.4003125 31.7690625 104 33 C104.66 32.67 105.32 32.34 106 32 C106.33 32.66 106.66 33.32 107 34 C112.58500567 33.80101292 112.58500567 33.80101292 117 31 C117.66 31 118.32 31 119 31 C119.33 30.34 119.66 29.68 120 29 C121.97888961 28.27306096 123.97954558 27.60183749 126 27 C127 30 127 30 126.3125 32.625 C125.879375 33.40875 125.44625 34.1925 125 35 C123.67840477 35.37719349 122.34214818 35.70415013 121 36 C119.59513683 36.66885455 118.19961398 37.35757322 116.8125 38.0625 C112.1222962 40.14277043 108.07771521 41.19782 103 40 C99.75328252 38.29016096 96.8701217 36.27981298 94 34 C93.52949219 34.44472656 93.05898438 34.88945313 92.57421875 35.34765625 C91.95160156 35.91355469 91.32898438 36.47945312 90.6875 37.0625 C90.07261719 37.63097656 89.45773437 38.19945312 88.82421875 38.78515625 C88.22222656 39.18605469 87.62023437 39.58695313 87 40 C86.01 39.67 85.02 39.34 84 39 C84 38.01 84 37.02 84 36 C82.88625 36.7115625 82.88625 36.7115625 81.75 37.4375 C76.826315 40.23504829 72.13695929 40.21191659 66.5625 40.25 C65.81162109 40.270625 65.06074219 40.29125 64.28710938 40.3125 C59.69351049 40.34482084 56.73773415 39.96714156 53 37 C52.67 36.34 52.34 35.68 52 35 C50.6696875 35.928125 50.6696875 35.928125 49.3125 36.875 C42.97789474 40.93870903 38.39571985 41.25849118 31 41 C31 40.34 31 39.68 31 39 C29.68 39 28.36 39 27 39 C25.989375 38.62875 24.97875 38.2575 23.9375 37.875 C22.968125 37.58625 21.99875 37.2975 21 37 C20.01 37.66 19.02 38.32 18 39 C11.32859703 39.81799049 5.91005119 39.1520273 0 36 C0 38.64 0 41.28 0 44 C-2.64 44 -5.28 44 -8 44 C-10.09350689 40.5980513 -10.17942163 37.94727588 -10 34 C-10.66 34 -11.32 34 -12 34 C-12 34.99 -12 35.98 -12 37 C-18.68031611 39.27738049 -27.26880374 41.7740974 -33.8671875 38.63671875 C-34.92292969 37.82654297 -34.92292969 37.82654297 -36 37 C-36 36.34 -36 35.68 -36 35 C-39.69902281 35.32638437 -40.93428722 35.93734363 -43.6875 38.5625 C-47.11061238 41.63088571 -50.2032968 41.53550017 -54.65625 41.30078125 C-57.39486357 40.94932584 -59.60325713 40.39165715 -62 39 C-62.33 38.34 -62.66 37.68 -63 37 C-63.886875 37.474375 -64.77375 37.94875 -65.6875 38.4375 C-68.59227316 39.80767602 -70.8160907 40.73467423 -74 41 C-76 39 -76 39 -76.1171875 37.046875 C-75.55933169 31.75624248 -74.79658706 27.98641641 -71 24 C-68.07073825 22.66668086 -65.1232809 21.76079919 -62 21 C-61.87882812 21.78246094 -61.75765625 22.56492187 -61.6328125 23.37109375 C-61.46523438 24.38300781 -61.29765625 25.39492188 -61.125 26.4375 C-60.96257812 27.44683594 -60.80015625 28.45617187 -60.6328125 29.49609375 C-60.42398437 30.32238281 -60.21515625 31.14867188 -60 32 C-59.34 32.33 -58.68 32.66 -58 33 C-58 33.66 -58 34.32 -58 35 C-56.02 35 -54.04 35 -52 35 C-53.65 34.67 -55.3 34.34 -57 34 C-57 33.67 -57 33.34 -57 33 C-52.71 33 -48.42 33 -44 33 C-44 32.34 -44 31.68 -44 31 C-42.625 29.375 -42.625 29.375 -41 28 C-40.34 28 -39.68 28 -39 28 C-37.62298702 26.71182656 -36.29355827 25.37195574 -35 24 C-29.75 18.75 -29.75 18.75 -25 18 C-24.505 18.99 -24.505 18.99 -24 20 C-25.4375 22.625 -25.4375 22.625 -27 25 C-26.195625 25.391875 -25.39125 25.78375 -24.5625 26.1875 C-22 28 -22 28 -21.1875 30.6875 C-21.125625 31.450625 -21.06375 32.21375 -21 33 C-20.18595703 32.566875 -20.18595703 32.566875 -19.35546875 32.125 C-18.64003906 31.75375 -17.92460937 31.3825 -17.1875 31 C-16.47980469 30.62875 -15.77210938 30.2575 -15.04296875 29.875 C-13 29 -13 29 -10 29 C-10 28.34 -10 27.68 -10 27 C-9.34 27 -8.68 27 -8 27 C-8.061875 26.195625 -8.12375 25.39125 -8.1875 24.5625 C-7.94700905 19.99317201 -6.58600559 16.26058774 -5 12 C-4.73703125 11.26910156 -4.4740625 10.53820312 -4.203125 9.78515625 C-2.97655772 6.42461222 -1.70545035 3.14852372 0 0 Z M2 5 C3 7 3 7 3 7 Z M1 8 C0.67 9.32 0.34 10.64 0 12 C0.66 11.67 1.32 11.34 2 11 C1.67 10.01 1.34 9.02 1 8 Z M-1 13 C0 15 0 15 0 15 Z M-3 17 C-2 19 -2 19 -2 19 Z M-33 28 C-33 28.66 -33 29.32 -33 30 C-30.525 30.495 -30.525 30.495 -28 31 C-28.66 30.67 -29.32 30.34 -30 30 C-30 29.34 -30 28.68 -30 28 C-30.99 28 -31.98 28 -33 28 Z M-4 28 C-3.34 28.66 -2.68 29.32 -2 30 C-1.67 29.34 -1.34 28.68 -1 28 C-1.99 28 -2.98 28 -4 28 Z M-5 29 C-4 31 -4 31 -4 31 Z M-34 30 C-33.34 31.32 -32.68 32.64 -32 34 C-30.35 34 -28.7 34 -27 34 C-27.8971875 33.566875 -27.8971875 33.566875 -28.8125 33.125 C-31 32 -31 32 -34 30 Z M30 30 C29.67 30.99 29.34 31.98 29 33 C29.66 33 30.32 33 31 33 C30.67 32.01 30.34 31.02 30 30 Z M58 31 C57.67 32.32 57.34 33.64 57 35 C57.66 34.67 58.32 34.34 59 34 C58.67 33.01 58.34 32.02 58 31 Z M-71 32 C-71 35 -71 35 -71 35 Z M96 32 C96.33 32.66 96.66 33.32 97 34 C97.66 33.67 98.32 33.34 99 33 C98.01 32.67 97.02 32.34 96 32 Z M31 33 C31.33 33.66 31.66 34.32 32 35 C32.33 34.34 32.66 33.68 33 33 C32.34 33 31.68 33 31 33 Z M84 33 C85 35 85 35 85 35 Z M-2 34 C-1 36 -1 36 -1 36 Z M25 34 C26 36 26 36 26 36 Z M75 36 C73.10529184 36.0685495 71.2083166 36.08480372 69.3125 36.0625 C68.31863281 36.05347656 67.32476562 36.04445312 66.30078125 36.03515625 C65.16189453 36.01775391 65.16189453 36.01775391 64 36 C63.67 36.99 63.34 37.98 63 39 C69.80203375 39.37634203 74.75690073 38.77471079 81 36 C78 34.66666667 78 34.66666667 75 36 Z " fill="#800000" transform="translate(368,28)"/>
<path d="M0 0 C2.0622048 -0.054348 4.12482816 -0.09294961 6.1875 -0.125 C7.33605469 -0.14820313 8.48460937 -0.17140625 9.66796875 -0.1953125 C12.91740372 -0.00484152 15.08660521 0.60639873 18 2 C18 2.66 18 3.32 18 4 C18.66 4.33 19.32 4.66 20 5 C21.47469952 12.88488535 21.10366432 20.2981546 19 28 C18.34 28 17.68 28 17 28 C16.505 30.475 16.505 30.475 16 33 C16.68707031 32.91621094 17.37414062 32.83242188 18.08203125 32.74609375 C19.43361328 32.59333984 19.43361328 32.59333984 20.8125 32.4375 C22.15248047 32.28087891 22.15248047 32.28087891 23.51953125 32.12109375 C26 32 26 32 29 33 C29 34.98 29 36.96 29 39 C28.360625 38.835 27.72125 38.67 27.0625 38.5 C25.19173179 37.96073333 25.19173179 37.96073333 24 38 C22.33333333 38 20.66666667 38 19 38 C18.67 38.99 18.34 39.98 18 41 C16.37667033 42.38576923 14.71275535 43.72641268 13 45 C14.875 40.25 14.875 40.25 16 38 C15.01 38 14.02 38 13 38 C13 39.32 13 40.64 13 42 C12.34 42 11.68 42 11 42 C10.88785156 42.72574219 10.77570313 43.45148437 10.66015625 44.19921875 C9.97038613 47.12563993 8.94489186 49.22287809 7.4375 51.8125 C6.98246094 52.60269531 6.52742188 53.39289062 6.05859375 54.20703125 C5.70925781 54.79871094 5.35992187 55.39039063 5 56 C4.34 56 3.68 56 3 56 C3.33 57.32 3.66 58.64 4 60 C2.02 60 0.04 60 -2 60 C-1.69255859 59.11248047 -1.69255859 59.11248047 -1.37890625 58.20703125 C-0.0002429 54.16339184 1.31750847 50.23144751 2 46 C3.485 46.495 3.485 46.495 5 47 C5.7138986 44.53155755 5.7138986 44.53155755 6 42 C5.34 41.67 4.68 41.34 4 41 C4 40.34 4 39.68 4 39 C3.37351562 39.02320313 2.74703125 39.04640625 2.1015625 39.0703125 C1.28429687 39.08835938 0.46703125 39.10640625 -0.375 39.125 C-1.18710937 39.14820313 -1.99921875 39.17140625 -2.8359375 39.1953125 C-5 39 -5 39 -7 37 C-7.66 38.32 -8.32 39.64 -9 41 C-11.3125 40.8125 -11.3125 40.8125 -14 40 C-18.01069366 34.61421137 -17.72794361 29.45954168 -17 23 C-15.92426381 18.88798678 -14.56823399 14.94858914 -13 11 C-12.34 11 -11.68 11 -11 11 C-10.67 9.68 -10.34 8.36 -10 7 C-9.01 7 -8.02 7 -7 7 C-7 6.34 -7 5.68 -7 5 C-4.69 4.01 -2.38 3.02 0 2 C0 1.34 0 0.68 0 0 Z M-7 13 C-7 13.66 -7 14.32 -7 15 C-7.99 15.33 -8.98 15.66 -10 16 C-11.22520264 19.00847418 -11.22520264 19.00847418 -12 22 C-11.67 22.33 -11.34 22.66 -11 23 C-11.12375 24.19625 -11.2475 25.3925 -11.375 26.625 C-11.43174777 29.48302421 -11.20111785 30.7105204 -9.55078125 33.0859375 C-7.76930356 34.915967 -6.10790196 36.55561322 -4 38 C-3.01 38 -2.02 38 -1 38 C-1 37.01 -1 36.02 -1 35 C3.32448133 34.26167392 7.65535464 33.60825035 12 33 C12.65161012 31.12699975 13.29602195 29.2514945 13.9375 27.375 C14.29714844 26.33085938 14.65679687 25.28671875 15.02734375 24.2109375 C16.42563396 19.59489512 17.50885882 14.83415878 17 10 C15.7905419 8.10693515 14.58138002 6.58138002 13 5 C4.73072523 3.73337148 -1.55905039 6.77461901 -7 13 Z M-13 22 C-14.18470607 28.16370451 -14.18470607 28.16370451 -12.5625 34.0625 C-12.046875 34.701875 -11.53125 35.34125 -11 36 C-10.01 35.67 -9.02 35.34 -8 35 C-8.72123047 34.41798828 -8.72123047 34.41798828 -9.45703125 33.82421875 C-11.45749498 31.45911353 -11.48876068 29.87308547 -11.6875 26.8125 C-11.75324219 25.91144531 -11.81898438 25.01039062 -11.88671875 24.08203125 C-11.92410156 23.39496094 -11.96148437 22.70789063 -12 22 C-12.33 22 -12.66 22 -13 22 Z " fill="#800000" transform="translate(275,9)"/>
<path d="M0 0 C2.475 0.495 2.475 0.495 5 1 C5 1.33 5 1.66 5 2 C3.35 2 1.7 2 0 2 C0 1.34 0 0.68 0 0 Z " fill="#800000" transform="translate(292,39)"/>
<path d="M0 0 C0.66 0 1.32 0 2 0 C1.67 0.99 1.34 1.98 1 3 C0.67 2.01 0.34 1.02 0 0 Z " fill="#800000" transform="translate(495,58)"/>
<path d="M0 0 C4 1 4 1 4 1 Z " fill="#800000" transform="translate(142,53)"/>
<path d="M0 0 C0.66 0 1.32 0 2 0 C2 0.66 2 1.32 2 2 C1.34 2 0.68 2 0 2 C0 1.34 0 0.68 0 0 Z " fill="#800000" transform="translate(23,47)"/>
<path d="" fill="#800000" transform="translate(0,0)"/>
<path d="M0 0 C3 1 3 1 3 1 Z " fill="#800000" transform="translate(27,65)"/>
<path d="M0 0 C0.33 0.66 0.66 1.32 1 2 C0.34 1.67 -0.32 1.34 -1 1 C-0.67 0.67 -0.34 0.34 0 0 Z " fill="#800000" transform="translate(233,55)"/>
<path d="M0 0 C0.33 0.66 0.66 1.32 1 2 C0.34 1.67 -0.32 1.34 -1 1 C-0.67 0.67 -0.34 0.34 0 0 Z " fill="#800000" transform="translate(108,55)"/>
<path d="M0 0 C2 1 2 1 2 1 Z " fill="#800000" transform="translate(427,68)"/>
<path d="M0 0 C2 1 2 1 2 1 Z " fill="#800000" transform="translate(203,65)"/>
<path d="M0 0 C2 1 2 1 2 1 Z " fill="#800000" transform="translate(41,65)"/>
<path d="M0 0 C2 1 2 1 2 1 Z " fill="#800000" transform="translate(215,63)"/>
<path d="" fill="#800000" transform="translate(0,0)"/>
<path d="M0 0 C2 1 2 1 2 1 Z " fill="#800000" transform="translate(475,61)"/>
<path d="M0 0 C2 1 2 1 2 1 Z " fill="#800000" transform="translate(471,59)"/>
<path d="M0 0 C2 1 2 1 2 1 Z " fill="#800000" transform="translate(99,59)"/>
<path d="M0 0 C2 1 2 1 2 1 Z " fill="#800000" transform="translate(375,58)"/>
<path d="M0 0 C2 1 2 1 2 1 Z " fill="#800000" transform="translate(219,56)"/>
<path d="" fill="#800000" transform="translate(0,0)"/>
<path d="M0 0 C2 1 2 1 2 1 Z " fill="#800000" transform="translate(327,54)"/>
<path d="" fill="#800000" transform="translate(0,0)"/>
<path d="M0 0 C2 1 2 1 2 1 Z " fill="#800000" transform="translate(171,45)"/>
<path d="" fill="#800000" transform="translate(0,0)"/>
<path d="" fill="#800000" transform="translate(0,0)"/>
<path d="M0 0 C2 1 2 1 2 1 Z " fill="#800000" transform="translate(43,21)"/>
<path d="M0 0 C2 1 2 1 2 1 Z " fill="#800000" transform="translate(279,15)"/>
<path d="" fill="#800000" transform="translate(0,0)"/>
<path d="" fill="#800000" transform="translate(0,0)"/>
<path d="" fill="#800000" transform="translate(0,0)"/>
<path d="" fill="#800000" transform="translate(0,0)"/>
<path d="" fill="#800000" transform="translate(0,0)"/>
<path d="" fill="#800000" transform="translate(0,0)"/>
<path d="" fill="#800000" transform="translate(0,0)"/>
<path d="" fill="#800000" transform="translate(0,0)"/>
<path d="" fill="#800000" transform="translate(0,0)"/>
<path d="" fill="#800000" transform="translate(0,0)"/>
<path d="" fill="#800000" transform="translate(0,0)"/>
<path d="" fill="#800000" transform="translate(0,0)"/>
<path d="" fill="#800000" transform="translate(0,0)"/>
<path d="" fill="#800000" transform="translate(0,0)"/>
<path d="" fill="#800000" transform="translate(0,0)"/>
<path d="" fill="#800000" transform="translate(0,0)"/>
<path d="" fill="#800000" transform="translate(0,0)"/>
</svg>
